<svg width="1923" height="1082" viewBox="0 0 1923 1082" fill="none" xmlns="http://www.w3.org/2000/svg">
<rect x="1.5" y="0.5" width="1919" height="1079" stroke="black"/>
<rect x="813.5" y="457.5" width="295" height="165" stroke="black"/>
<line x1="813.752" y1="457.434" x2="13.7519" y2="0.434155" stroke="black"/>
<line x1="813.753" y1="457.435" x2="8.75319" y2="0.434822" stroke="black"/>
<line x1="813.754" y1="457.435" x2="4.51275" y2="0.863372" stroke="black"/>
<line x1="813.755" y1="457.436" x2="0.754985" y2="0.435868" stroke="black"/>
<line x1="813.752" y1="457.434" x2="13.7519" y2="0.434155" stroke="black"/>
<line x1="813.753" y1="457.435" x2="8.75319" y2="0.434822" stroke="black"/>
<line x1="813.754" y1="457.435" x2="4.51275" y2="0.863372" stroke="black"/>
<line x1="813.755" y1="457.436" x2="0.754985" y2="0.435868" stroke="black"/>
<line y1="-0.5" x2="921.33" y2="-0.5" transform="matrix(0.86831 -0.496022 -0.496022 -0.86831 1108 457)" stroke="black"/>
<line y1="-0.5" x2="925.675" y2="-0.5" transform="matrix(0.869636 -0.493694 -0.493694 -0.869636 1108 457)" stroke="black"/>
<line y1="-0.5" x2="929.156" y2="-0.5" transform="matrix(0.870943 -0.491384 -0.491384 -0.870943 1108 457)" stroke="black"/>
<line y1="-0.5" x2="932.64" y2="-0.5" transform="matrix(0.871719 -0.490007 -0.490007 -0.871719 1108 457)" stroke="black"/>
<line x1="814.251" y1="623.433" x2="25.5024" y2="1080.87" stroke="black"/>
<line x1="813.225" y1="623.446" x2="1.22539" y2="1033.45" stroke="black"/>
<line x1="814.238" y1="623.44" x2="0.819105" y2="1062.67" stroke="black"/>
<line y1="-0.5" x2="911.795" y2="-0.5" transform="matrix(0.86505 0.501685 0.501685 -0.86505 1109 623)" stroke="black"/>
<line y1="-0.5" x2="909.639" y2="-0.5" transform="matrix(0.892661 0.450728 0.450728 -0.892661 1110 623)" stroke="black"/>
<line y1="-0.5" x2="924.429" y2="-0.5" transform="matrix(0.879914 0.475132 0.475132 -0.879914 1109 623)" stroke="black"/>
</svg>
